<?xml version="1.0" encoding="UTF-8"?><svg id="Layer_1" xmlns="http://www.w3.org/2000/svg" xmlns:xlink="http://www.w3.org/1999/xlink" viewBox="0 0 200 200"><defs><style>.cls-1{fill:url(#linear-gradient);}.cls-2{fill:#fff;}</style><linearGradient id="linear-gradient" x1="42.41" y1="98.87" x2="61.05" y2="66.59" gradientTransform="matrix(1, 0, 0, 1, 0, 0)" gradientUnits="userSpaceOnUse"><stop offset=".2" stop-color="#fa24a1"/><stop offset=".8" stop-color="#c032ec"/></linearGradient></defs><g><path class="cls-2" d="M159.82,107.59c-1.23-7.58-6.64-14.27-13.46-16.91v-.83c0-2.3,.06-4.65,.11-6.93,.13-5.24,.26-10.67-.28-16.06-.04-.35-.07-.7-.11-1.05-.56-5.01-1.69-10.89-5.8-16.47-3.1-4.21-6.91-7.94-11.33-11.11-8.46-6.04-18.78-9.64-29.05-10.12-9.76-.46-19.63,1.85-28.51,6.66-7.66,4.15-17.41,11.5-20.94,23h5.27c3.41-9.07,11.57-15.08,18.06-18.6,8.08-4.38,17.03-6.48,25.89-6.06,9.33,.44,18.7,3.7,26.38,9.19,3.99,2.85,7.43,6.22,10.21,10,2.75,3.73,4.16,7.81,4.86,14.07,.04,.33,.07,.66,.11,.99,.51,5.08,.38,10.35,.26,15.44,0,.07,0,.15,0,.22-1.73-1.5-3.83-2.61-6.12-3.13l-2.92-.28h-.13c-5.6-.24-11.1,3.44-13.08,8.67-1.11,2.93-1.12,6.01-1.12,8.72l-.03,25.28c0,2.73,0,5.83,1.08,8.79,1.97,5.38,7.34,9.13,13.06,9.14h0c5.44,0,10.56-3.39,12.74-8.34,11.1-4.37,16.29-15.47,14.87-24.28Zm-19.24,21.78c-1.24,3.39-4.76,5.84-8.37,5.84h0c-3.61,0-7.13-2.46-8.37-5.85-.78-2.13-.78-4.64-.77-7.07l.03-25.28c0-2.4,0-4.88,.79-6.95,1.2-3.15,4.59-5.46,7.96-5.46,.07,0,.14,0,.21,0l2.33,.21c2.79,.69,5.12,2.67,6.12,5.22,.81,2.07,.81,4.55,.82,6.95l.03,25.3c0,2.44,0,4.96-.78,7.1Zm5.71-3.76c.06-1.15,.06-2.28,.06-3.35l-.03-25.3c0-.26,0-.52,0-.79,4.34,2.41,7.74,7.11,8.56,12.21,.93,5.77-2.12,13.13-8.59,17.22Z"/><path class="cls-2" d="M99.71,152.87c-5.24,0-9.54,2.16-11.12,5.3h-10.99c-5.74,0-10.41-4.67-10.41-10.41v-8.32c3.88-1.37,7.13-4.43,8.57-8.36,1.08-2.96,1.08-6.06,1.08-8.79l-.03-25.28c0-2.66-.01-5.66-1.06-8.54l-3.95,7.22c0,.44,0,.89,0,1.33l.03,25.28c0,2.43,0,4.94-.77,7.07-1.24,3.39-4.76,5.85-8.37,5.85h0c-3.61,0-7.13-2.46-8.37-5.84-.78-2.14-.78-4.66-.78-7.1l.02-13.62h-5l-.02,13.61c0,1.07,0,2.19,.06,3.35-6.47-4.09-9.52-11.45-8.59-17.22,.57-3.54,2.38-6.88,4.88-9.4l.11-6.5c-5.1,3.27-8.92,8.89-9.93,15.1-1.42,8.81,3.77,19.91,14.87,24.28,2.12,4.8,6.99,8.13,12.24,8.33v7.55c0,8.5,6.91,15.41,15.41,15.41h10.78c.27,.66,.66,1.28,1.15,1.86,2.08,2.39,5.88,3.82,10.18,3.82,6.6,0,11.77-3.51,11.77-7.99s-5.17-7.99-11.77-7.99Zm0,10.97c-3.16,0-5.49-1.05-6.4-2.1-.26-.3-.4-.61-.38-.86v-.07c.07-1.17,2.8-2.95,6.77-2.95s6.77,1.96,6.77,2.99c0,1.19-2.7,2.99-6.77,2.99Z"/></g><path class="cls-1" d="M48.72,84.47v18.04h.04v.03h5.07v-18.08h9.64c3.21,.39,5.49,1.99,6.72,4.62l2.68-5.32c-2.2-2.4-5.4-3.74-9.36-3.74h-9.68v-17.61h-5.11v17.61H31.15v4.43h17.57Z"/></svg>