<?xml version="1.0" encoding="UTF-8"?><svg id="Layer_1" xmlns="http://www.w3.org/2000/svg" xmlns:xlink="http://www.w3.org/1999/xlink" viewBox="0 0 200 200"><defs><style>.cls-1{fill:url(#linear-gradient);}.cls-2{fill:#fff;}</style><linearGradient id="linear-gradient" x1="122.14" y1="64.35" x2="140.89" y2="31.88" gradientTransform="matrix(1, 0, 0, 1, 0, 0)" gradientUnits="userSpaceOnUse"><stop offset=".2" stop-color="#fa24a1"/><stop offset=".8" stop-color="#c032ec"/></linearGradient></defs><path class="cls-1" d="M143.16,45.39h-9.36V27.78h-5.42v17.61h-17.61v4.48l17.61,.02v18.06h5.12v-18.08h9.58c3.35,.39,5.69,2.1,6.88,4.93l2.52-5.01,.23-.46c-2.21-2.53-5.47-3.95-9.55-3.95Z"/><g><path class="cls-2" d="M156.22,59.69h-.04v-.44c0-1.46-.16-2.82-.44-4.08l-3.96,7.86v104.56H75.92v-34.85h-27.94V49.77h57.15v-4.43H43.54l.04,91.16,29.17,35.27,.19,.24h83.28V59.69ZM49.55,136.83l-.27-.33h22.89v27.89l-.33-.4-.33-.4-21.7-26.45-.27-.32Z"/><rect class="cls-2" x="75.9" y="88.94" width="47.86" height="4.49"/><rect class="cls-2" x="75.9" y="104.55" width="47.86" height="4.49"/><rect class="cls-2" x="75.9" y="73.33" width="47.86" height="4.49"/></g></svg>