<?xml version="1.0" encoding="UTF-8"?><svg id="Layer_1" xmlns="http://www.w3.org/2000/svg" xmlns:xlink="http://www.w3.org/1999/xlink" viewBox="0 0 200 200"><defs><style>.cls-1{fill:url(#linear-gradient);}.cls-2{fill:#fff;}</style><linearGradient id="linear-gradient" x1="134.27" y1="84.24" x2="153.02" y2="51.76" gradientTransform="matrix(1, 0, 0, 1, 0, 0)" gradientUnits="userSpaceOnUse"><stop offset=".2" stop-color="#fa24a1"/><stop offset=".8" stop-color="#c032ec"/></linearGradient></defs><g><path class="cls-1" d="M155.29,65.28h-9.36v-17.61h-5.42v17.61h-17.61v4.48l17.61,.02v18.06h5.12v-18.08h9.58c3.35,.39,5.69,2.1,6.88,4.93l2.52-5.01,.23-.46c-2.21-2.53-5.47-3.95-9.55-3.95Z"/><path class="cls-2" d="M114.27,65.96H31.61l.04,73.56,.03-.02v12.83H168.39v-50.17h-.04l-.04-22.44v-.44c0-1.46-.16-2.82-.44-4.08l-3.96,7.86v19.09h-.02v45.67H36.18v-45.67h-.13v-32.36H114.27v-.03"/></g><polygon class="cls-2" points="141.25 91.98 140.5 91.98 140.36 92.11 99.18 125.3 40.6 69.8 116.07 69.89 116.08 65.29 31.61 65.29 31.61 68.97 98.97 132.22 145.53 94.67 145.63 91.98 141.25 91.98"/></svg>