<?xml version="1.0" encoding="UTF-8"?><svg id="Layer_1" xmlns="http://www.w3.org/2000/svg" xmlns:xlink="http://www.w3.org/1999/xlink" viewBox="0 0 200 200"><defs><style>.cls-1{fill:url(#linear-gradient);}.cls-2{fill:#fff;}</style><linearGradient id="linear-gradient" x1="90.51" y1="121.36" x2="109.15" y2="89.07" gradientTransform="matrix(1, 0, 0, 1, 0, 0)" gradientUnits="userSpaceOnUse"><stop offset=".2" stop-color="#fa24a1"/><stop offset=".8" stop-color="#c032ec"/></linearGradient></defs><path class="cls-2" d="M92.1,163.94c-5.6,0-10.15-4.55-10.15-10.15h4.5c0,3.12,2.54,5.65,5.65,5.65s5.65-2.54,5.65-5.65v-23.28h4.5v23.28c0,5.6-4.55,10.15-10.15,10.15Z"/><path class="cls-1" d="M97.51,107.32v18.08h5.07v-18.08h8.64c3.19,.39,5.26,1.16,6.49,3.76l2.67-4.8c-2.2-2.38-5.19-3.39-9.12-3.39h-8.68v-17.61h-5.07v17.61h-17.61v4.43h17.61Z"/><rect class="cls-2" x="97.75" y="38.31" width="4.5" height="41.36"/><path class="cls-2" d="M163.53,107.28h-35.31v-3.47c-.92-23.54-19.56-42.37-29.02-48.28-9.46,5.91-28.1,24.74-29.02,48.37v3.38H36.47v-2.25c0-15.01,6.94-29.3,19.55-40.24,12.09-10.5,28.12-16.51,43.98-16.51s31.88,6.02,43.98,16.51c12.61,10.94,19.55,25.23,19.55,40.24v2.25Zm-30.85-4.5h26.29c-1.38-25.92-26.46-48.33-55.67-49.92,9.22,6.53,27.95,24.79,29.38,49.92Zm-91.64,0h24.7c1.46-25.01,19.94-43.16,29.2-49.79-28.45,2.37-52.55,24.4-53.9,49.79Zm57.34-49.98l.82,1.39,.83-1.41c-.55,0-1.11,0-1.66,.02Z"/></svg>