<?xml version="1.0" encoding="UTF-8"?><svg id="Layer_1" xmlns="http://www.w3.org/2000/svg" xmlns:xlink="http://www.w3.org/1999/xlink" viewBox="0 0 200 200"><defs><style>.cls-1{fill:url(#linear-gradient);}.cls-2{fill:#fff;}</style><linearGradient id="linear-gradient" x1="86.24" y1="103.99" x2="104.44" y2="72.47" gradientTransform="matrix(1, 0, 0, 1, 0, 0)" gradientUnits="userSpaceOnUse"><stop offset=".2" stop-color="#fa24a1"/><stop offset=".8" stop-color="#c032ec"/></linearGradient></defs><path class="cls-1" d="M92.26,107.46h4.42v-18.08h9.97c3.18,.37,5.51,1.95,6.84,4.5l2.33-4.63c-2.14-2.35-5.26-3.66-9.13-3.66h-10.01v-17.61h-4.42v17.61h-16.81v3.78h16.81v18.08Z"/><g><path class="cls-2" d="M121.33,120.59v-22.35c0-1.52-.16-2.93-.47-4.22l-3.47,7.89,.07,18.67h-20.74v-8.51h-4.63l.07,12.64,25.31-.12"/><polygon class="cls-2" points="96.29 124.64 67.57 124.64 67.57 85.62 71.57 85.62 71.57 120.64 92.29 120.64 92.29 112.06 96.29 112.06 96.29 124.64"/><path class="cls-2" d="M94.46,165.91c-14.33,0-26.89-12.13-26.89-25.96v-20.94h4v20.94c0,11.7,10.7,21.96,22.89,21.96s22.89-10.26,22.89-21.96v-20.94h4v20.94c0,13.83-12.57,25.96-26.89,25.96Z"/><path class="cls-2" d="M96.72,62.99h-4.4v-8.96c0-10.01,8.14-18.15,18.16-18.15h23.95v4.4h-23.95c-7.58,0-13.76,6.17-13.76,13.75v8.96Z"/></g></svg>