<?xml version="1.0" encoding="UTF-8"?><svg id="Layer_1" xmlns="http://www.w3.org/2000/svg" xmlns:xlink="http://www.w3.org/1999/xlink" viewBox="0 0 200 200"><defs><style>.cls-1{fill:url(#linear-gradient);}.cls-2{fill:#fff;}</style><linearGradient id="linear-gradient" x1="121.26" y1="105.66" x2="140.01" y2="73.19" gradientTransform="matrix(1, 0, 0, 1, 0, 0)" gradientUnits="userSpaceOnUse"><stop offset=".2" stop-color="#fa24a1"/><stop offset=".8" stop-color="#c032ec"/></linearGradient></defs><g><path class="cls-1" d="M142.28,86.7h-9.36v-17.61h-5.42v17.61h-17.61v4.48l17.61,.02v18.06h5.12v-18.08h9.58c3.35,.39,5.69,2.1,6.88,4.93l2.52-5.01,.23-.46c-2.21-2.53-5.47-3.95-9.55-3.95Z"/><g><polygon class="cls-2" points="49.09 91.08 102.26 91.08 102.26 91.05 102.26 86.65 44.66 86.65 44.66 86.65 44.7 169.38 49.11 169.38 49.09 91.08"/><path class="cls-2" d="M155.34,101h-.04v-.44c0-1.46-.16-2.82-.44-4.08l-3.96,7.86v65.02h4.43V101Z"/></g><rect class="cls-2" x="44.69" y="164.9" width="110.65" height="4.5"/></g><path class="cls-2" d="M72.44,86.65h-5v-24.85c0-19.2,13.62-33.68,31.68-33.68s33.68,15.11,33.68,33.68v2.64h-5v-2.64c0-15.81-12.87-28.68-28.68-28.68s-26.68,12.33-26.68,28.68v24.85Z"/></svg>