<?xml version="1.0" encoding="UTF-8"?><svg id="Layer_1" xmlns="http://www.w3.org/2000/svg" xmlns:xlink="http://www.w3.org/1999/xlink" viewBox="0 0 200 200"><defs><style>.cls-1{fill:url(#linear-gradient);}.cls-2{fill:#fff;}</style><linearGradient id="linear-gradient" x1="47.34" y1="115.77" x2="65.98" y2="83.49" gradientTransform="matrix(1, 0, 0, 1, 0, 0)" gradientUnits="userSpaceOnUse"><stop offset=".2" stop-color="#fa24a1"/><stop offset=".8" stop-color="#c032ec"/></linearGradient></defs><path class="cls-2" d="M130.93,100.43c-18.9,0-34.27-15.38-34.27-34.27s15.37-34.27,34.27-34.27,34.27,15.37,34.27,34.27-15.37,34.27-34.27,34.27Zm0-63.54c-16.14,0-29.27,13.13-29.27,29.27s13.13,29.27,29.27,29.27,29.27-13.13,29.27-29.27-13.13-29.27-29.27-29.27Z"/><path class="cls-1" d="M53.72,101.37v18.08h5.07v-18.08h9.64c3.19,.39,5.46,1.96,6.69,4.56l2.67-5.3c-2.2-2.38-5.39-3.69-9.32-3.69h-9.68v-17.61h-5.07v17.61h-17.61v4.43h17.61Z"/><path class="cls-2" d="M166.35,128.04c-1.15-3.66-4.48-6.42-8.29-6.89-1.68-.21-3.28,.03-4.75,.35-.51,.11-1,.23-1.46,.35-.15,.04-.3,.07-.45,.11l-24,5.96c.17-.5,.31-1.01,.4-1.53,.26-1.42,.21-2.88-.11-4.28-.71-3.53-3.18-6.6-6.47-7.9-1.41-.56-2.88-.76-4.26-.84-2.13-.29-4.29-.27-6.25-.16-.91,.05-1.82,.11-2.73,.18-4.03,.28-8.21,.57-12-.29-5.12-1.16-9.29-4.03-13.02-7.32l-2.32,4.6c3.96,3.34,8.58,6.31,14.23,7.59,4.51,1.02,9.05,.71,13.45,.41,.37-.03,.73-.05,1.1-.08v.06l5.1-.03c.7,0,1.4,0,2.09,.02,1.92,.3,3.64,.96,4.85,2.24,.62,.66,1.06,1.48,1.31,2.35,.07,.29,.11,.59,.13,.89,.06,.95-.1,1.92-.39,2.88-.54,1.22-1.5,2.26-2.69,2.87l-.11,.05c-.69,.11-1.37,.22-2.07,.31-1.91,.26-3.83,.43-5.77,.54l-17.81-.14-.12,5c5.92,.24,11.99,.48,18.07,.14h1.12c1.58,.02,3.39,.03,5.22-.27l-.06,.11,5.42-1.35c2.01-.4,3.96-.85,5.82-1.29,4.57-1.09,9.18-2.29,13.63-3.46,3.15-.82,6.29-1.64,9.44-2.43l.37-.09c.49-.12,.98-.24,1.47-.35,.97-.21,1.96-.35,2.85-.25,1.85,.2,3.61,1.63,4.2,3.4,.54,1.65,.1,3.53-1,4.85-1.35,1.64-3.56,2.07-5.43,2.84-2.57,1.07-5.15,2.11-7.73,3.16l-11.81,4.82-8.55,3.49-1.23,.5c-5.91,2.41-12.18,3.63-18.64,3.63-4.38,0-8.73-.58-12.91-1.72l-35.42-9.65v-14.98h-5.01v20.96l-12.5,.02-.02-39.85h-5l.03,44.86,22.51-.04v-5.73l34.09,9.29c4.62,1.26,9.4,1.89,14.24,1.89,7.12,0,14.03-1.35,20.55-4.01l5.08-2.07,11.19-4.56,11.26-4.59c2.69-1.1,5.55-2.09,7.9-3.89,2.19-1.68,3.5-4.37,3.69-7.1,.08-1.21-.05-2.44-.42-3.61Z"/><path class="cls-2" d="M120.97,79.46l7.08,.27h11.22v-4.19h-10.6c.86-1.43,1.28-2.98,1.28-4.69,0-.26-.05-.79-.14-1.6l4.54-.09-.04-4.18h-5.94c-.11-.19-.21-.36-.31-.53l-.22-.35c-.63-.96-.97-1.49-.98-3.11,.07-1.35,.49-2.31,1.31-3.02,.82-.7,2.05-1.07,3.56-1.07,1.78,0,4.12,1.4,4.49,3.2l.37,1.84,4.32-.39-.46-2.29c-.88-4.39-5.05-6.69-8.72-6.69-2.55,0-4.75,.73-6.37,2.12-1.7,1.46-2.7,3.67-2.81,6.23,0,1.44,.27,2.73,.87,4.03h-.97l-.06,4.18,3.16,.09c.11,.52,.2,1.02,.2,1.61l.03,.27c-.04,.94-.32,1.75-.85,2.54l-3.92,5.79Z"/></svg>