<?xml version="1.0" encoding="UTF-8"?><svg id="Layer_1" xmlns="http://www.w3.org/2000/svg" xmlns:xlink="http://www.w3.org/1999/xlink" viewBox="0 0 200 200"><defs><style>.cls-1{fill:url(#linear-gradient);}.cls-2{fill:#fff;}</style><linearGradient id="linear-gradient" x1="36.72" y1="85.3" x2="55.36" y2="53.02" gradientTransform="matrix(1, 0, 0, 1, 0, 0)" gradientUnits="userSpaceOnUse"><stop offset=".2" stop-color="#fa24a1"/><stop offset=".8" stop-color="#c032ec"/></linearGradient></defs><path class="cls-2" d="M106.86,151.96c-3.86,0-7.69-.8-11.26-2.35l-.13-.06-2.03-1.03,2.26-4.46,1.96,1c3.78,1.64,7.92,2.24,12,1.73,1.35-.17,2.7-.46,4-.86,1.07-.51,2-1.3,2.69-2.28l-15.59-5.66,1.71-4.7,17.58,6.38c3.14-1.07,6.56-2.82,7.78-5.53l-21.49-8.85,1.9-4.62,22.74,9.38c1.23-.46,2.95-1.84,3.99-3.27,.49-.67,.9-1.49,1.17-2.36l.02-.08-24.85-11.79,2.14-4.52,25.53,12.11-.06,.13h0l.06-.13,.17,.08c1.71-.42,3.97-2.01,5.31-3.78,.67-1.42,.29-3.25-.86-4.34-.81-.76-1.89-1.4-3.03-2.08-.64-.38-1.27-.75-1.87-1.15-1.82-1.21-3.71-2.42-5.63-3.58-3.77-2.3-7.69-4.49-11.63-6.49-7.89-4.01-16.16-7.44-24.58-10.19-.74-.24-1.48-.48-2.22-.71l-1.31-.33-4.05,1.52c-.06,.02-.1,.04-.15,.06l-3.32,6.07c-1.76,2.72-4.35,4.76-7.33,5.79-.59,.21-1.21,.35-1.83,.42-2.39,.3-4.83-.4-6.72-1.9-2.51-2-3.8-5.11-3.47-8.3,.5-4.99,2.49-9.64,5.77-13.42,2.26-2.59,4.9-4.78,7.84-6.51,4.9-2.94,10.57-4.82,16.84-5.59,5.98-.74,11.67-.39,16.71,.2l-.02-.18,3.33,.53,2.1,.39c1.95,.36,3.95,.56,5.92,.59,.22,0,.52-.03,.81-.06,1.66-.2,3.21-.89,4.49-1.97l.28-.25-5.34-7.24,16.36-12.59,36.39,49.44-16.41,12.4-4.84-6.55c-2.27,3.62-5.3,6.66-8.9,8.91,2.13,2.64,2.61,6.43,1.09,9.42l-.15,.31-.24,.33c-1.54,2.06-4.35,4.45-7.34,5.46-.08,.41-.19,.78-.29,1.08-.44,1.4-1.08,2.68-1.9,3.8-1.35,1.86-3.66,3.94-6.07,4.92-.88,3.31-3.69,7.17-11.28,9.76l-.31,.62-.62-.31,.62,.31c-1.21,2.39-3.21,4.33-5.63,5.46l-.51,.2c-1.61,.5-3.27,.86-4.94,1.07-1.14,.14-2.28,.21-3.42,.21Zm12.46-7.97l1.37,.7h0l-1.37-.7Zm.62-1.7h0Zm18.59-21.14l-.6,1.26,.6-1.25h0Zm-45.46-38.81l3.03,.77c.79,.25,1.57,.5,2.36,.75,8.66,2.83,17.17,6.36,25.29,10.49,4.06,2.06,8.08,4.31,11.97,6.68,1.97,1.2,3.92,2.44,5.8,3.69,.53,.35,1.08,.68,1.64,1.01,.13,.08,.27,.16,.4,.24l.62-.29c3.82-2.13,6.95-5.29,9.06-9.17l.27-.5-19.94-27.02c-2.05,1.74-4.51,2.82-7.14,3.14-.47,.06-.95,.09-1.42,.1-2.33-.03-4.6-.26-6.83-.67l-.81-.15-1.17-.13c-5.44-.76-11.91-1.43-18.62-.6-5.57,.69-10.58,2.34-14.9,4.93-2.5,1.47-4.72,3.32-6.62,5.5-2.6,2.99-4.18,6.68-4.57,10.65-.16,1.5,.45,2.95,1.61,3.89,.84,.67,1.92,.98,2.98,.85,.27-.03,.55-.1,.81-.19,1.92-.66,3.59-1.97,4.71-3.69l3.44-6.3c.66-1.04,1.62-1.53,2.48-1.87l5.56-2.09Zm39.1-23.66l30.43,41.24,8.44-6.38-30.44-41.35-8.43,6.49Z"/><path class="cls-2" d="M88.04,153.84c-1.2,0-2.4-.25-3.51-.75-3.67-1.64-5.72-5.56-4.99-9.53l.1-.54,.58-1.28c.38-.71,.74-1.4,1.1-2.09,.72-1.37,1.43-2.73,2.19-4.06,1.35-2.33,3.74-3.92,6.41-4.25,1.73-.21,3.46,.1,5.01,.91l.12,.07c2.85,1.57,4.61,4.86,4.39,8.18-.18,2.69-1.66,5.34-2.75,7.1l-.31,.5c-.21,.33-.41,.64-.6,.93-1.85,2.83-4.1,4.42-6.7,4.74-.35,.04-.7,.06-1.05,.06Zm-3.59-9.32c-.28,1.67,.58,3.32,2.12,4.01,.6,.27,1.26,.37,1.9,.29,.4-.05,1.61-.2,3.13-2.52,.18-.27,.37-.56,.57-.87l.29-.46c.46-.74,1.88-3.03,2-4.79,.09-1.4-.65-2.83-1.82-3.47-.66-.34-1.38-.48-2.1-.39-1.12,.14-2.12,.81-2.69,1.79-.72,1.24-1.4,2.54-2.06,3.81-.38,.74-.74,1.42-1.11,2.12l-.22,.5Z"/><path class="cls-2" d="M75.85,150.73c-1.49,0-2.98-.39-4.27-1.13-2.29-1.3-3.84-3.55-4.27-6.16-.39-2.38,.22-4.81,1.69-6.71l5.18-9.7-.03-.26,.94-1.4c1.4-2.07,3.61-3.44,6.08-3.74,.73-.09,1.46-.08,2.19,.01,3.25,.44,5.95,2.66,7.03,5.8,.75,2.28,.5,4.74-.67,6.79l-5.82,10.87c-.85,2.28-2.61,4.1-4.86,5.01-.69,.28-1.42,.47-2.16,.56h0c-.34,.04-.69,.06-1.03,.06Zm3.4-22.6l-6.22,11.55c-.67,.82-.96,1.89-.78,2.95,.18,1.12,.84,2.07,1.81,2.62,.67,.38,1.45,.54,2.21,.45h0c.31-.04,.61-.12,.9-.23,.98-.39,1.73-1.2,2.08-2.21l.18-.4,.73-1.32,5.19-9.73c.51-.89,.6-1.88,.31-2.78-.45-1.3-1.59-2.25-2.96-2.44-.3-.04-.61-.04-.91,0-1.02,.12-1.94,.69-2.53,1.54Z"/><path class="cls-2" d="M64.61,145.69c-1.44,0-2.86-.36-4.14-1.07-2.29-1.26-3.87-3.47-4.35-6.05-.44-2.4,.14-4.86,1.59-6.8l1.04-1.88,6.35-11.86c.94-2.02,2.68-3.62,4.77-4.4,.63-.24,1.29-.4,1.96-.48,1.59-.2,3.21,.06,4.68,.74l.1,.05c2.15,1.12,3.69,3.03,4.31,5.29,.61,2.14,.37,4.44-.68,6.43l-1.22,2.29-6.32,12.08c-.83,2.27-2.57,4.09-4.79,5.01-.71,.3-1.46,.49-2.23,.59h0c-.35,.04-.71,.07-1.06,.07Zm8.28-27.61c-.15,0-.29,0-.44,.03-.28,.03-.56,.1-.81,.2-.88,.33-1.63,1.03-2.01,1.88l-.07,.14-7.77,14.37c-.66,.83-.93,1.92-.73,2.97,.2,1.1,.87,2.04,1.85,2.58,.67,.37,1.42,.52,2.17,.42,.32-.04,.63-.12,.93-.25,.97-.4,1.71-1.21,2.05-2.21l.17-.4,.35-.65,7.25-13.85c.45-.85,.55-1.83,.29-2.75-.26-.94-.89-1.72-1.73-2.16-.45-.21-.96-.32-1.48-.32Z"/><path class="cls-2" d="M55.53,136.45c-1.35,0-2.69-.32-3.91-.95l-.14-.08c-4.04-2.34-5.54-7.38-3.46-11.51l1.24-2.39,1.6-2.95c1.35-2.43,3.77-4.06,6.48-4.39,1.74-.21,3.48,.1,5.04,.92l.12,.06c3.62,2.04,5.29,6.4,3.97,10.35l-.22,.56-3.23,6.02c-1.42,2.43-3.75,3.97-6.43,4.3-.35,.04-.7,.06-1.05,.06Zm2.86-17.33c-.15,0-.29,0-.44,.03-1.13,.14-2.15,.83-2.71,1.83l-2.77,5.21c-.88,1.74-.24,3.9,1.46,4.88,.61,.31,1.33,.44,2.04,.35h0c1.14-.14,2.09-.77,2.68-1.78l3.08-5.75c.54-1.68-.17-3.51-1.7-4.38-.5-.26-1.07-.4-1.64-.4Z"/><path class="cls-1" d="M43.1,70.91v18.08h5.07v-18.08h9.64c3.19,.39,5.46,1.96,6.69,4.56l2.67-5.3c-2.2-2.38-5.39-3.69-9.32-3.69h-9.68v-17.61h-5.07v17.61H25.49v4.43h17.61Z"/><polyline class="cls-2" points="30.66 116.98 30.63 77.13 25.63 77.13 25.66 121.99"/><polyline class="cls-2" points="48.17 110.98 48.16 96.01 43.16 96.01 43.17 116.96"/><path class="cls-2" d="M77.76,77.56s-2.11,.19-6.59-2.69l-2.56,4.95c3.77,2.7,5.24,1.83,5.24,1.83"/><polygon class="cls-2" points="48.16 132.68 25.64 132.68 25.64 109.62 30.64 109.62 30.64 127.68 43.16 127.68 43.16 109.62 48.16 109.62 48.16 132.68"/><rect class="cls-2" x="46.41" y="117.74" width="5" height="6.28" transform="translate(-78.22 91.84) rotate(-55.11)"/></svg>