<?xml version="1.0" encoding="UTF-8"?><svg id="Layer_1" xmlns="http://www.w3.org/2000/svg" xmlns:xlink="http://www.w3.org/1999/xlink" viewBox="0 0 200 200"><defs><style>.cls-1{fill:url(#linear-gradient);}.cls-2{fill:#fff;}</style><linearGradient id="linear-gradient" x1="122.77" y1="65.78" x2="141.4" y2="33.5" gradientTransform="matrix(1, 0, 0, 1, 0, 0)" gradientUnits="userSpaceOnUse"><stop offset=".2" stop-color="#fa24a1"/><stop offset=".8" stop-color="#c032ec"/></linearGradient></defs><path class="cls-2" d="M156.55,60.58c0-1.56,.13-3-.19-4.32l-4.5,8.94,.07,8.03c.03,3.05,.09,5.99-.33,9.02-.34,2.46-.69,4.92-1.06,7.38-.2,1.36-.41,2.73-.65,4.08-.04,.24-.08,.47-.13,.7-15.7,4.13-31.67,6.3-47.51,6.49V51.21c.86,0,1.44,0,1.81,0,.02,0,.04,.01,.06,.01h1.14v-1.32l.04-2.6v-.65h-1.13c-1.71-.03-47.74-.19-47.74-.19-7.89,0-12.99,5.43-12.99,13.82,0,11.71,.16,23.13,2.11,34.2,.2,1.15,.43,2.32,.64,3.48l.17,.83s.1,.49,.1,.49c.14,.68,.28,1.35,.42,2.02l.18,.84s.11,.48,.11,.48c4.45,19.94,11.6,35.25,21.86,46.77,7.96,8.94,18.36,16.19,30.06,20.98l.62,.25,.25,.1,.25-.1,.62-.25c11.71-4.79,22.1-12.04,30.06-20.98,10.26-11.53,17.42-26.84,21.87-46.78l.11-.48s.18-.84,.18-.84c.15-.67,.29-1.34,.43-2.02,0,0,.1-.49,.1-.5,0,0,.16-.82,.15-.82,1.62-8.29,2.92-16.73,2.87-25.2l-.06-9.93v-2.27Zm-58.93,104.15c-9.74-4.48-18.43-10.81-25.16-18.37-9.67-10.86-16.46-25.35-20.73-44.3-.18-.82-.36-1.65-.53-2.46,15.38,3.88,30.98,5.91,46.42,6.1v59.03Zm0-113.52v49.68c-15.83-.19-31.78-2.36-47.44-6.49-.04-.23-.09-.46-.13-.7-1.88-10.72-2.04-21.47-2.04-33.41,0-5.87,3.06-9.24,8.41-9.24,0,0,33.07,.14,41.2,.16h0Zm50.59,50.85h0c-4.28,18.95-11.06,33.44-20.73,44.3-6.75,7.58-15.46,13.91-25.23,18.4v-59.06c15.44-.19,31.07-2.22,46.49-6.1-.17,.81-.34,1.64-.53,2.46Zm-41.58-.6c14.59-.51,29.18-2.69,43.69-6.54-14.51,3.85-29.1,6.03-43.69,6.54Z"/><path class="cls-1" d="M129.08,51.35v18.08h5.07v-18.08h9.64c3.25,.39,5.54,2.03,6.76,4.71l2.69-5.34c-2.2-2.44-5.42-3.8-9.41-3.8h-9.68V29.31h-5.07v17.61h-17.61v4.43h17.61Zm4.42-.65h10.33c1.67,.2,3.12,.71,4.32,1.51-1.2-.8-2.64-1.31-4.32-1.51h-10.33Zm0,18.08h0Zm-21.38-18.08h0Z"/></svg>