<?xml version="1.0" encoding="UTF-8"?><svg id="Layer_1" xmlns="http://www.w3.org/2000/svg" xmlns:xlink="http://www.w3.org/1999/xlink" viewBox="0 0 200 200"><defs><style>.cls-1{fill:url(#linear-gradient);}.cls-2{fill:#fff;}</style><linearGradient id="linear-gradient" x1="94.41" y1="114.91" x2="113.15" y2="82.44" gradientTransform="matrix(1, 0, 0, 1, 0, 0)" gradientUnits="userSpaceOnUse"><stop offset=".2" stop-color="#fa24a1"/><stop offset=".8" stop-color="#c032ec"/></linearGradient></defs><path class="cls-1" d="M115.43,95.95h-9.36v-17.61h-5.42v17.61h-17.61v4.48l17.61,.02v18.06h5.12v-18.08h9.58c3.35,.39,5.69,2.1,6.88,4.93l2.52-5.01,.23-.46c-2.21-2.53-5.47-3.95-9.55-3.95Z"/><path class="cls-2" d="M88.14,91.55h-4.5v-21.7l-.27-.14c-7.54-3.8-12.39-11.65-12.37-19.98,.02-7.04,3.58-16.05,11.33-19.2,1.16-.48,2.04-.11,2.46,.16q1.1,.71,1.16,9.04c.02,2.38,.03,4.75,.03,6.06l9.42,7.83,7.68-7.7c0-1.29,.01-3.73,.03-6.19q.06-8.34,1.16-9.04c.42-.27,1.29-.64,2.47-.16,7.74,3.14,11.3,12.15,11.33,19.2,.03,8.33-4.83,16.18-12.37,19.98l-.27,.13v3.42h-4.5v-6.18l2.74-1.38c6.03-3.04,9.92-9.31,9.89-15.95-.02-4.79-2.04-10.44-5.92-13.51-.03,3.04-.05,7.48-.06,10.63v.93l-11.89,11.92-14.2-11.8v-1.05c-.01-3.15-.04-7.58-.07-10.62-3.88,3.08-5.91,8.73-5.92,13.51-.02,6.65,3.86,12.91,9.89,15.95l2.74,1.38v24.47Zm16.91-56.85h0Zm-21,0h0Z"/><path class="cls-2" d="M94.91,169.71c-1.42,0-2.87-.24-4.29-.73-4.27-1.47-6.92-4.96-6.92-9.12l-.09-46.38h4.5l.09,46.38c0,2.22,1.45,4.04,3.88,4.87,2.04,.7,4.16,.64,5.8-.16,3-1.47,3.14-4.53,3.02-9.39-.02-.68-.03-1.35-.03-2v-29.14h4.5v29.14c0,.61,.02,1.24,.04,1.89,.11,4.52,.27,10.7-5.54,13.55-1.5,.73-3.2,1.1-4.96,1.1Z"/><path class="cls-2" d="M54.8,130.39h-.07c-7.04-.02-16.05-3.58-19.2-11.33-.48-1.18-.1-2.05,.17-2.47q.7-1.09,9.03-1.15c2.37-.02,4.75-.03,6.06-.03l7.83-9.42-7.7-7.68c-1.29,0-3.73-.01-6.19-.03q-8.34-.06-9.04-1.16c-.26-.4-.64-1.28-.16-2.45,3.15-7.76,12.16-11.32,19.2-11.34h.07c8.31,0,16.12,4.85,19.91,12.37l.13,.27h3.42v4.5h-6.18l-1.38-2.74c-3.04-6.01-9.27-9.89-15.9-9.89h-.06c-4.79,.02-10.44,2.04-13.51,5.92,3.04,.03,7.48,.06,10.63,.06h.93l11.92,11.89-11.79,14.2h-1.05c-3.15,.01-7.58,.04-10.63,.07,3.07,3.88,8.73,5.91,13.51,5.92h.06c6.62,0,12.86-3.88,15.9-9.89l1.38-2.74h15.58v4.5h-12.81l-.13,.27c-3.79,7.52-11.61,12.37-19.91,12.37Z"/><path class="cls-2" d="M112.34,117.79v-4.5l51.51-.09h0c2.21,0,4.03-1.45,4.87-3.88,.7-2.04,.64-4.16-.16-5.8-1.47-3-4.53-3.15-9.39-3.02-.68,.02-1.35,.03-2,.03h-26.14v-4.5h26.14c.61,0,1.24-.02,1.89-.04,4.52-.11,10.7-.27,13.55,5.54,1.33,2.71,1.47,6.08,.38,9.25-1.47,4.27-4.96,6.92-9.12,6.92h0l-51.51,.09Z"/></svg>