<?xml version="1.0" encoding="UTF-8"?><svg id="Layer_1" xmlns="http://www.w3.org/2000/svg" xmlns:xlink="http://www.w3.org/1999/xlink" viewBox="0 0 200 200"><defs><style>.cls-1{fill:url(#linear-gradient);}</style><linearGradient id="linear-gradient" x1="142.27" y1="67.74" x2="161.02" y2="35.26" gradientTransform="matrix(1, 0, 0, 1, 0, 0)" gradientUnits="userSpaceOnUse"><stop offset=".2" stop-color="#fa24a1"/><stop offset=".8" stop-color="#c032ec"/></linearGradient></defs><path class="cls-1" d="M163.29,48.78h-9.36V31.17h-5.42v17.61h-17.61v4.48l17.61,.02v18.06h5.12v-18.08h9.58c3.35,.39,5.69,2.1,6.88,4.93l2.52-5.01,.23-.46c-2.21-2.53-5.47-3.95-9.55-3.95Z"/><g><rect x="105.74" y="98.6" width="47.86" height="4.49"/><rect x="105.74" y="114.21" width="47.86" height="4.49"/><rect x="105.74" y="82.99" width="47.86" height="4.49"/></g><g><path d="M75.2,106.29c1.73,.24,3.17,1.1,3.99,2.39,.59,.93,.93,2.12,1.07,3.75,.09,1.06,.1,6.17,.07,11h-27.89v-4.6c0-.69-.01-1.39-.03-2.1-.06-3.17-.12-6.16,1.18-8.14,.81-1.24,2.24-2.07,3.93-2.3h17.69m.27-4.5h-18.37c-2.93,.36-5.65,1.84-7.29,4.33-2.45,3.73-1.89,8.47-1.89,12.71v9.1h36.85s.15-13.64-.04-15.89c-.18-2.03-.64-4-1.74-5.75-1.62-2.58-4.4-4.13-7.39-4.48h-.13Z"/><path d="M66.49,78.26c4.54,0,8.24,3.7,8.24,8.24s-3.7,8.24-8.24,8.24-8.24-3.7-8.24-8.24,3.7-8.24,8.24-8.24m0-4.5c-7.03,0-12.74,5.7-12.74,12.74s5.7,12.74,12.74,12.74,12.74-5.7,12.74-12.74-5.7-12.74-12.74-12.74h0Z"/></g><path d="M176.35,85.66l-.04-22.44v-.44c0-1.46-.16-2.82-.44-4.08l-3.96,7.86v19.09h-.02v62.67H28.18v-62.67h-.13V53.29H124.27v-4.43H23.61l.04,91.16,.03-.02v12.83H176.39V85.66h-.04Z"/></svg>