<?xml version="1.0" encoding="UTF-8"?><svg id="Layer_1" xmlns="http://www.w3.org/2000/svg" xmlns:xlink="http://www.w3.org/1999/xlink" viewBox="0 0 200 200"><defs><style>.cls-1{fill:url(#linear-gradient);}</style><linearGradient id="linear-gradient" x1="134.72" y1="59.28" x2="153.36" y2="26.99" gradientTransform="matrix(1, 0, 0, 1, 0, 0)" gradientUnits="userSpaceOnUse"><stop offset=".2" stop-color="#fa24a1"/><stop offset=".8" stop-color="#c032ec"/></linearGradient></defs><g><path d="M62.57,97.34h.65v-18.84h-18.84v18.84h18.19Zm-13.14-5.05v-8.74h8.74v8.74h-8.74Zm-.65-9.39h0Zm-3.75,13.79h0Z"/><path d="M93.37,97.34h.65v-18.84h-18.84v18.84h18.19Zm-13.14-5.05v-8.74h8.74v8.74h-8.74Zm-.65-9.39h0Zm-3.75,13.79h0Z"/><path d="M124.17,97.34h.65v-18.84h-18.84v18.84h18.19Zm-13.14-5.05v-8.74h8.74v8.74h-8.74Zm-.65-9.39h0Zm-3.75,13.79h0Z"/><path d="M154.97,97.34h.65v-18.84h-18.84v18.84h18.19Zm-13.14-5.05v-8.74h8.74v8.74h-8.74Zm-.65-9.39h0Zm-3.75,13.79h0Z"/><path d="M62.57,123.79h.65v-18.84h-18.84v18.84h18.19Zm-13.14-5.05v-8.74h8.74v8.74h-8.74Zm-.65-9.39h0Zm-3.75,13.79h0Z"/><path d="M93.37,123.79h.65v-18.84h-18.84v18.84h18.19Zm-13.14-5.05v-8.74h8.74v8.74h-8.74Zm-.65-9.39h0Zm-3.75,13.79h0Z"/><path d="M124.17,123.83h.65v-18.84h-18.84v18.84h18.19Zm-13.14-5.05v-8.74h8.74v8.74h-8.74Zm-.65-9.39h0Zm-3.75,13.79h0Z"/><path d="M154.97,123.79h.65v-18.84h-18.84v18.84h18.19Zm-13.14-5.05v-8.74h8.74v8.74h-8.74Zm-.65-9.39h0Zm-3.75,13.79h0Z"/><path d="M45.03,150.32h18.19v-18.84h-18.84v18.84h.65Zm4.4-5.05v-8.74h8.74v8.74h-8.74Zm-.65-9.39h0Zm-3.75,13.79h0Z"/><path d="M93.37,150.32h.65v-18.84h-18.84v18.84h18.19Zm-13.14-5.05v-8.74h8.74v8.74h-8.74Zm-.65-9.39h0Zm-3.75,13.79h0Z"/><path d="M124.17,150.32h.65v-18.84h-18.84v18.84h18.19Zm-13.14-5.05v-8.74h8.74v8.74h-8.74Zm-.65-9.39h0Zm-3.75,13.79h0Z"/></g><g><path class="cls-1" d="M141.03,44.87v18.04h.04v.03h5.07v-18.08h9.64c3.21,.39,5.49,1.99,6.72,4.62l2.68-5.32c-2.2-2.4-5.4-3.74-9.36-3.74h-9.68V22.83h-5.11v17.61h-17.57v4.43h17.57Z"/><path d="M168.58,71.55v-.65h-.04v-17.21c0-1.6-.18-3.09-.52-4.44l-4.47,8.88v10.63H36.47v-23.93h17.24v12.88h5.05v-12.88h58.54v-5.05H58.76v-7.71h-5.05v7.71H31.41v123.4H168.59v-5.05h0V71.55ZM58.76,40.42h0Zm-22.29,0h0Zm-.65,122.1h0Zm127.71,0h0Zm0-4.4H36.47V73.81h127.06v84.31Zm4.4,4.4h0Z"/></g></svg>