<?xml version="1.0" encoding="UTF-8"?><svg id="Layer_1" xmlns="http://www.w3.org/2000/svg" xmlns:xlink="http://www.w3.org/1999/xlink" viewBox="0 0 200 200"><defs><style>.cls-1{fill:url(#linear-gradient);}</style><linearGradient id="linear-gradient" x1="46.58" y1="63.73" x2="64.77" y2="32.21" gradientTransform="matrix(1, 0, 0, 1, 0, 0)" gradientUnits="userSpaceOnUse"><stop offset=".2" stop-color="#fa24a1"/><stop offset=".8" stop-color="#c032ec"/></linearGradient></defs><g><rect x="97.02" y="89.12" width="34.92" height="4.52"/><rect x="97.02" y="72.83" width="34.92" height="4.52"/><rect x="97.02" y="105.54" width="34.92" height="4.52"/><polygon points="131.94 121.96 120.74 121.96 120.74 126.16 121.39 126.16 121.39 126.16 131.29 126.16 131.29 126.16 131.94 126.16 131.94 121.96"/><rect x="120.74" y="138.39" width="11.2" height="4.52"/><path d="M96.75,142.64l7.08,.27h11.22v-4.19h-10.6c.86-1.43,1.28-2.98,1.28-4.69,0-.26-.05-.79-.14-1.6l4.54-.09-.04-4.18h-5.94c-.11-.19-.21-.36-.31-.53l-.22-.35c-.63-.96-.97-1.49-.98-3.11,.07-1.35,.49-2.31,1.31-3.02,.82-.7,2.05-1.07,3.56-1.07,1.78,0,4.12,1.4,4.49,3.2l.37,1.84,4.32-.39-.46-2.29c-.88-4.39-5.05-6.69-8.72-6.69-2.55,0-4.75,.73-6.37,2.12-1.7,1.46-2.7,3.67-2.81,6.23,0,1.44,.27,2.73,.87,4.03h-.97l-.06,4.18,3.16,.09c.11,.52,.2,1.02,.2,1.61l.03,.27c-.04,.94-.32,1.75-.85,2.54l-3.92,5.79Z"/></g><g><path class="cls-1" d="M52.89,67.37h4.42v-18.08h9.97c3.18,.37,5.51,1.95,6.84,4.5l2.33-4.63c-2.14-2.35-5.26-3.66-9.13-3.66h-10.01V27.91h-4.42v17.61h-17.61v3.78h17.61v18.08Z"/><path d="M140.33,45.7h-56.9v4.51h59.53c3.4,1.46,5.3,4.81,5.3,9.58v11.11h-.07v93.51l-16.55-11.36h0l-.18-.27-17.74,12.19-16.83-11.52-.57-.33h-.09l-.53-.33-.6,.41-.38,.12-14.78,10.11V84.2h-.24v-25.35c0-1.48-.16-2.86-.46-4.13l-3.88,7.71v23.85h.07v16.06h-18.11v-27.67h-4.53l.07,32.2h22.57v62.19l.11,.06v2.66l2.21-1.51,.13,.07,17.82-12.2,16.66,11.41,.62,.45h.24l.48,.33,.6-.41,.38-.12,17.01-11.65,20.86,14.23,.16-3.52V59.03c0-8.22-4.75-13.33-12.39-13.33Z"/></g></svg>