<?xml version="1.0" encoding="UTF-8"?><svg id="Layer_1" xmlns="http://www.w3.org/2000/svg" xmlns:xlink="http://www.w3.org/1999/xlink" viewBox="0 0 200 200"><defs><style>.cls-1{fill:url(#linear-gradient);}</style><linearGradient id="linear-gradient" x1="104.02" y1="65.78" x2="122.66" y2="33.49" gradientTransform="matrix(1, 0, 0, 1, 0, 0)" gradientUnits="userSpaceOnUse"><stop offset=".2" stop-color="#fa24a1"/><stop offset=".8" stop-color="#c032ec"/></linearGradient></defs><g><path d="M73.32,103.89v-18.19h-18.84v18.84h18.84v-.65Zm-5.05-4.4h-8.74v-8.74h8.74v8.74Z"/><path d="M99.02,103.89v-18.19h-18.84v18.84h18.84v-.65Zm-5.05-4.4h-8.74v-8.74h8.74v8.74Z"/><path d="M73.32,77.23v-18.19h-18.84v18.84h18.84v-.65Zm-5.05-4.4h-8.74v-8.74h8.74v8.74Z"/><path d="M80.18,59.04v18.84h18.84v-18.84h-18.84Zm5.05,5.05h8.74v8.74h-8.74v-8.74Z"/><path d="M124.17,104.54h.65v-18.84h-18.84v18.84h18.19Zm-13.14-13.79h8.74v8.74h-8.74v-8.74Z"/><path d="M73.32,130.34v-18.19h-18.84v18.84h18.84v-.65Zm-5.05-4.4h-8.74v-8.74h8.74v8.74Z"/><path d="M80.83,112.15h-.65v18.84h18.84v-18.84h-18.19Zm13.14,13.79h-8.74v-8.74h8.74v8.74Z"/><path d="M124.17,131.03h.65v-18.84h-18.84v18.84h18.19Zm-13.14-13.79h8.74v8.74h-8.74v-8.74Z"/><path d="M55.13,138.68h-.65v18.84h18.84v-18.84h-18.19Zm13.14,13.79h-8.74v-8.74h8.74v8.74Z"/><path d="M124.17,157.52h.65v-18.84h-18.84v18.84h18.19Zm-13.14-13.79h8.74v8.74h-8.74v-8.74Z"/><path d="M137.85,77.88v-17.99c0-1.6-.19-2.09-.52-3.44l-4.47,7.88-.03,101h-33.76v-26.64h-18.84v26.64H46.57V51.23h38.13v-4.25H41.51v123.4h43.76v-26.64h8.74v26.64h67.52V77.88h-23.69Zm0,17.79h6.92v7.57h-6.92v-7.57Zm0,24.68h7.34v7.84h-7.33v-7.84Zm0,24.81h7.33v7.84h-7.32v-7.84Zm18.66,20.22h-18.66v-.05h0v-7.8h11.85v-16.9h-11.86v-7.91h11.86v-16.9h-11.87v-8.2h11.29v-16.32h-11.3v-8.41h18.69v82.5Z"/></g><path class="cls-1" d="M110.33,51.37v18.04h.04v.03h5.07v-18.08h9.64c3.21,.39,5.49,1.99,6.72,4.62l2.68-5.32c-2.2-2.4-5.4-3.74-9.36-3.74h-9.68V29.33h-5.11v17.61h-17.57v4.43h17.57Z"/></svg>