<?xml version="1.0" encoding="UTF-8"?><svg id="Layer_1" xmlns="http://www.w3.org/2000/svg" xmlns:xlink="http://www.w3.org/1999/xlink" viewBox="0 0 200 200"><defs><style>.cls-1{fill:url(#linear-gradient);}.cls-2{fill:none;stroke:#000;stroke-miterlimit:10;stroke-width:4.5px;}</style><linearGradient id="linear-gradient" x1="90.51" y1="121.36" x2="109.15" y2="89.07" gradientTransform="matrix(1, 0, 0, 1, 0, 0)" gradientUnits="userSpaceOnUse"><stop offset=".2" stop-color="#fa24a1"/><stop offset=".8" stop-color="#c032ec"/></linearGradient></defs><path class="cls-2" d="M84.2,153.78c0,4.36,3.54,7.9,7.9,7.9s7.9-3.54,7.9-7.9v-23.28"/><path class="cls-1" d="M97.51,107.32v18.08h5.07v-18.08h8.64c3.19,.39,5.26,1.16,6.49,3.76l2.67-4.8c-2.2-2.38-5.19-3.39-9.12-3.39h-8.68v-17.61h-5.07v17.61h-17.61v4.43h17.61Z"/><line class="cls-2" x1="100" y1="79.67" x2="100" y2="38.31"/><path class="cls-2" d="M98.64,53.24c-9.47,5.61-29.71,25.21-30.71,50.57v1.22h-29.21c0-30.1,29.64-54.5,61.28-54.5s61.28,24.4,61.28,54.5h-30.81v-1.22c-.99-25.37-21.24-44.97-30.71-50.57"/></svg>