<?xml version="1.0" encoding="UTF-8"?><svg id="Layer_1" xmlns="http://www.w3.org/2000/svg" xmlns:xlink="http://www.w3.org/1999/xlink" viewBox="0 0 200 200"><defs><style>.cls-1{fill:url(#linear-gradient);}.cls-2{stroke-width:4.4px;}.cls-2,.cls-3{fill:none;stroke:#000;stroke-miterlimit:10;}.cls-3{stroke-width:4px;}</style><linearGradient id="linear-gradient" x1="86.24" y1="103.99" x2="104.44" y2="72.47" gradientTransform="matrix(1, 0, 0, 1, 0, 0)" gradientUnits="userSpaceOnUse"><stop offset=".2" stop-color="#fa24a1"/><stop offset=".8" stop-color="#c032ec"/></linearGradient></defs><path class="cls-1" d="M92.26,107.46h4.42v-18.08h9.97c3.18,.37,5.51,1.95,6.84,4.5l2.33-4.63c-2.14-2.35-5.26-3.66-9.13-3.66h-10.01v-17.61h-4.42v17.61h-16.81v3.78h16.81v18.08Z"/><g><path d="M121.33,120.59v-22.35c0-1.52-.16-2.93-.47-4.22l-3.47,7.89,.07,18.67h-20.74v-8.51h-4.63l.07,12.64,25.31-.12"/><polyline class="cls-3" points="69.57 85.62 69.57 122.64 94.29 122.64 94.29 112.06"/><path class="cls-3" d="M69.57,119.01v20.94c0,13.23,12.25,23.96,24.89,23.96h0c12.64,0,24.89-10.73,24.89-23.96v-20.94"/><path class="cls-2" d="M134.43,38.09h-23.95c-8.77,0-15.96,7.18-15.96,15.95v8.96"/></g></svg>