<?xml version="1.0" encoding="UTF-8"?><svg id="Layer_1" xmlns="http://www.w3.org/2000/svg" xmlns:xlink="http://www.w3.org/1999/xlink" viewBox="0 0 200 200"><defs><style>.cls-1{fill:url(#linear-gradient);}.cls-2{fill:none;stroke:#000;stroke-miterlimit:10;stroke-width:5px;}</style><linearGradient id="linear-gradient" x1="33.26" y1="75.38" x2="51.46" y2="43.86" gradientTransform="matrix(1, 0, 0, 1, 0, 0)" gradientUnits="userSpaceOnUse"><stop offset=".2" stop-color="#fa24a1"/><stop offset=".8" stop-color="#c032ec"/></linearGradient></defs><g><path class="cls-1" d="M39.58,79.02h4.42v-18.08h9.97c3.18,.37,5.51,1.95,6.84,4.5l2.33-4.63c-2.14-2.35-5.26-3.66-9.13-3.66h-10.01v-17.61h-4.42v17.61H21.97v3.78h17.61v18.08Z"/><path d="M164.57,79.56v-8.88c0-8.22-1.75-13.33-9.39-13.33H70.12v4.51h87.69c3.4,1.46,2.3,4.81,2.3,9.58v8.11h4.46Z"/></g><path class="cls-2" d="M49.69,160.44h117c6.26,0,11.34-5.08,11.34-11.34V79.02H64.49v70.08c0,6.26-5.08,11.34-11.34,11.34h-4.76c-6.26,0-6.34-5.08-6.34-11.34v-62.79"/><path d="M66.56,130.11l-.16-59.62c0-1.48-.16-2.86-.46-4.13l-3.88,7.71,.04,56.04h4.45Z"/><g><rect x="83.24" y="125.72" width="40.86" height="4.49"/><rect x="83.24" y="140.21" width="40.86" height="4.49"/><rect x="83.24" y="111.24" width="40.86" height="4.49"/><rect x="83.24" y="94.76" width="75.04" height="4.34"/></g><g><path d="M152.78,132.78c.54,.1,.98,.36,1.2,.72,.22,.34,.35,.87,.42,1.6,.04,.51,.05,2.6,.04,5.07h-14.13v-1.2c0-.44,0-.89-.02-1.35-.03-1.64-.07-3.34,.46-4.15,.23-.35,.66-.59,1.18-.69h10.83m.3-4.5h-11.51c-1.84,.23-3.54,1.15-4.57,2.72-1.53,2.34-1.18,5.31-1.18,7.96v5.7h23.09s.1-8.54-.03-9.96c-.11-1.27-.4-2.5-1.09-3.61-1.02-1.62-2.76-2.59-4.63-2.81h-.08Z"/><path d="M147.46,115.22c1.92,0,3.48,1.56,3.48,3.48s-1.56,3.48-3.48,3.48-3.48-1.56-3.48-3.48,1.56-3.48,3.48-3.48m0-4.5c-4.41,0-7.98,3.57-7.98,7.98s3.57,7.98,7.98,7.98,7.98-3.57,7.98-7.98-3.57-7.98-7.98-7.98h0Z"/></g></svg>