<?xml version="1.0" encoding="UTF-8"?><svg id="Layer_1" xmlns="http://www.w3.org/2000/svg" xmlns:xlink="http://www.w3.org/1999/xlink" viewBox="0 0 200 200"><defs><style>.cls-1{fill:url(#linear-gradient);}.cls-2{fill:none;stroke:#000;stroke-miterlimit:10;stroke-width:4.5px;}</style><linearGradient id="linear-gradient" x1="112.92" y1="132.61" x2="130.8" y2="101.64" gradientTransform="matrix(1, 0, 0, 1, 0, 0)" gradientUnits="userSpaceOnUse"><stop offset=".2" stop-color="#fa24a1"/><stop offset=".8" stop-color="#c032ec"/></linearGradient></defs><polyline points="56.18 119.54 94.05 119.54 94.05 119.51 94.05 115.11 57.97 115.1"/><path class="cls-2" d="M87.43,150.15c1.02,7.59,3.56,13.46,11.42,13.46h.28c7.86,0,10.39-5.87,11.42-13.46"/><path class="cls-2" d="M95.58,47.03v-8.55c0-2.81-.83-5.08,4.42-5.08h0c5.25,0,4.42,2.28,4.42,5.08v8.55"/><path d="M154.75,139.15c-3.52-4.72-6.38-8.03-8.48-13.62l-2.63,5.41c2.04,4.59,4.55,6.95,7.51,10.92,.46,.6,.67,1.35,.6,2.11-.07,.75-.42,1.45-.98,1.96-.56,.51-1.28,.78-2.03,.78H51.26c-.75,0-1.48-.28-2.03-.78-.56-.51-.91-1.2-.98-1.96-.07-.75,.14-1.5,.61-2.12,8.55-11.46,13.46-24.17,13.46-38.27l.71-12.97c0-22.79,14.54-41.32,37.32-41.32s37.32,18.54,37.32,41.32v12.91c0,2.34,.15,4.69,.41,7.04h4.52c-.28-2.35-.43-4.7-.43-7.04v-12.91c0-25.27-16.56-45.82-41.82-45.82s-41.82,20.56-41.82,45.76l-.71,12.97c0,13.22-4.58,24.94-12.56,35.63-1.14,1.5-1.67,3.36-1.49,5.24,.17,1.88,1.04,3.61,2.44,4.88,1.39,1.26,3.18,1.95,5.05,1.95h97.48c1.87,0,3.67-.69,5.06-1.95,1.4-1.27,2.26-3,2.44-4.88,.17-1.88-.36-3.74-1.48-5.23Z"/><path class="cls-1" d="M123.42,119.64h9.58c3.35,.39,5.69,2.1,6.88,4.93l2.52-5.01,.23-.46c-2.21-2.53-5.47-3.95-9.55-3.95h-9.36v-17.61h-5.42v17.61h-17.61v4.48l17.61,.02v16.06h5.12v-16.08Z"/></svg>