<?xml version="1.0" encoding="UTF-8"?><svg id="Layer_1" xmlns="http://www.w3.org/2000/svg" xmlns:xlink="http://www.w3.org/1999/xlink" viewBox="0 0 200 200"><defs><style>.cls-1{fill:url(#linear-gradient);}.cls-2{stroke-width:4.5px;}.cls-2,.cls-3{fill:none;stroke:#000;stroke-miterlimit:10;}.cls-3{stroke-width:5px;}</style><linearGradient id="linear-gradient" x1="121.26" y1="105.66" x2="140.01" y2="73.19" gradientTransform="matrix(1, 0, 0, 1, 0, 0)" gradientUnits="userSpaceOnUse"><stop offset=".2" stop-color="#fa24a1"/><stop offset=".8" stop-color="#c032ec"/></linearGradient></defs><g><path class="cls-1" d="M142.28,86.7h-9.36v-17.61h-5.42v17.61h-17.61v4.48l17.61,.02v18.06h5.12v-18.08h9.58c3.35,.39,5.69,2.1,6.88,4.93l2.52-5.01,.23-.46c-2.21-2.53-5.47-3.95-9.55-3.95Z"/><g><polygon points="49.09 91.08 102.26 91.08 102.26 91.05 102.26 86.65 44.66 86.65 44.66 86.65 44.7 169.38 49.11 169.38 49.09 91.08"/><path d="M155.34,101h-.04v-.44c0-1.46-.16-2.82-.44-4.08l-3.96,7.86v65.02h4.43V101Z"/></g><line class="cls-2" x1="44.69" y1="167.15" x2="155.34" y2="167.15"/></g><path class="cls-3" d="M130.3,64.44v-2.64c0-17.22-13.96-31.18-31.18-31.18h0c-17.22,0-29.18,13.96-29.18,31.18v24.85"/></svg>