<?xml version="1.0" encoding="UTF-8"?><svg id="Layer_1" xmlns="http://www.w3.org/2000/svg" xmlns:xlink="http://www.w3.org/1999/xlink" viewBox="0 0 200 200"><defs><style>.cls-1{fill:url(#linear-gradient);}.cls-2{fill:none;stroke:#000;stroke-miterlimit:10;stroke-width:5px;}</style><linearGradient id="linear-gradient" x1="138.43" y1="113.77" x2="157.07" y2="81.48" gradientTransform="matrix(1, 0, 0, 1, 0, 0)" gradientUnits="userSpaceOnUse"><stop offset=".2" stop-color="#fa24a1"/><stop offset=".8" stop-color="#c032ec"/></linearGradient></defs><g><path d="M50.72,91.66c10.03,0,18.18-8.16,18.18-18.18s-8.16-18.18-18.18-18.18-18.18,8.16-18.18,18.18,8.16,18.18,18.18,18.18Zm0-31.32c7.24,0,13.13,5.89,13.13,13.13s-5.89,13.13-13.13,13.13-13.13-5.89-13.13-13.13,5.89-13.13,13.13-13.13Z"/><path d="M76.74,78.29h0l.02,.05c.16,.3,.31,.58,.47,.85,1.12,1.95,2.5,3.74,4.09,5.33,4.88,4.88,11.35,7.57,18.23,7.57,5.81,0,11.49-1.99,16-5.61l.57-.45-.12-.12c5.85-4.92,9.2-12.06,9.2-19.7,0-13.16-9.81-24.16-22.83-25.59l-.72-.08v.17c-.71-.06-1.43-.09-2.14-.09-6.88,0-13.34,2.66-18.18,7.5s-7.62,11.63-7.52,18.57h-.1l.03,.68c.17,3.85,1.18,7.53,3,10.93Zm37.1-26.97c4.01,3.89,6.31,9.27,6.31,14.88,0,11.41-9.28,20.69-20.69,20.69-7.23,0-14.04-3.88-17.76-10.13l-.05-.08-.06-.1c-.26-.44-.49-.9-.68-1.28-.12-.25-.24-.51-.36-.77-.11-.26-.22-.52-.32-.78-.22-.58-.38-1.02-.5-1.44l-.05-.18c-2.12-7.27-.12-15.11,5.22-20.45,3.89-3.89,9.08-6.04,14.6-6.04,5.13,0,10.04,1.88,13.84,5.3l.46,.41,.04-.04Zm-13.56-6.29c.3,.01,.6,.02,.9,.04-.3-.02-.6-.03-.9-.04Zm1.95,.16c.29,.04,.59,.07,.88,.12-.29-.05-.59-.08-.88-.12Zm1.94,.34c.29,.06,.57,.12,.86,.19-.28-.08-.57-.13-.86-.19Zm1.91,.52c.27,.09,.55,.17,.82,.27-.27-.1-.55-.18-.82-.27Zm1.88,.71c.26,.11,.51,.21,.77,.33-.25-.12-.51-.22-.77-.33Zm1.84,.9c.23,.13,.47,.24,.69,.38-.23-.14-.46-.25-.69-.38Zm1.82,1.13c.18,.13,.37,.24,.55,.37-.18-.13-.37-.25-.55-.37Zm-27.19,2.44c.51-.51,1.04-.99,1.59-1.44-.55,.45-1.08,.93-1.59,1.44Zm2.15-1.86c.37-.29,.74-.57,1.13-.83-.39,.26-.76,.55-1.13,.83Zm1.84-1.26c.36-.22,.71-.44,1.08-.64-.37,.19-.72,.42-1.08,.64Zm1.86-1.01c.36-.17,.71-.35,1.07-.5-.36,.15-.72,.33-1.07,.5Zm1.92-.8c.36-.13,.71-.27,1.08-.38-.36,.11-.72,.25-1.08,.38Zm1.96-.61c.36-.09,.72-.19,1.08-.26-.36,.07-.72,.17-1.08,.26Zm1.99-.41c.36-.06,.72-.12,1.08-.16-.36,.04-.72,.1-1.08,.16Zm2.01-.22c.36-.02,.72-.05,1.08-.05-.36,0-.72,.03-1.08,.05Zm-14.72,40.52c-.57-.48-1.13-.98-1.67-1.52,.54,.54,1.1,1.04,1.67,1.52Zm1.84,1.4c-.58-.4-1.14-.82-1.69-1.27,.55,.45,1.11,.87,1.69,1.27Zm12.96,4.42c.59,.03,1.18,.03,1.78,.02-.16,0-.31,.02-.47,.02-.44,0-.87-.01-1.31-.04Zm-12.72-4.25c.56,.38,1.14,.73,1.72,1.06-.59-.33-1.16-.68-1.72-1.06Zm2.02,1.22c.58,.32,1.18,.61,1.78,.88-.6-.27-1.2-.56-1.78-.88Zm2.08,1.01c.61,.26,1.22,.5,1.85,.71-.62-.21-1.24-.45-1.85-.71Zm2.13,.8c.64,.21,1.29,.4,1.94,.55-.65-.16-1.3-.34-1.94-.55Zm2.14,.6c.68,.16,1.37,.29,2.07,.39-.69-.1-1.38-.23-2.07-.39Zm2.09,.4c.69,.1,1.39,.17,2.09,.21-.7-.04-1.4-.11-2.09-.21Zm17.34-3.88c.62-.41,1.24-.86,1.83-1.33-.59,.48-1.2,.92-1.83,1.33Zm-12.34,4.08c.4-.02,.81-.05,1.21-.1-.4,.04-.8,.07-1.21,.1Zm2.16-.21c.4-.06,.8-.13,1.2-.2-.4,.08-.8,.15-1.2,.2Zm2.13-.4c.4-.09,.8-.2,1.19-.32-.4,.11-.79,.22-1.19,.32Zm2.1-.59c.4-.13,.8-.28,1.19-.44-.4,.15-.79,.3-1.19,.44Zm2.05-.77c.41-.18,.81-.37,1.21-.57-.4,.2-.8,.4-1.21,.57Zm1.99-.96c.44-.24,.86-.5,1.28-.76-.42,.26-.85,.53-1.28,.76Zm-10.49-47.14c-.15,0-.3,0-.45-.01,.15,0,.3,0,.45,.01Zm-1.39-.04c-.43,0-.87,.01-1.3,.03,.42-.02,.85-.03,1.28-.03h.02Zm-15.27,5.15c.22-.17,.45-.34,.68-.5-.23,.16-.45,.33-.68,.5Zm1.12-.81c.23-.16,.46-.31,.69-.45-.23,.15-.46,.3-.69,.45Zm1.14-.73c.24-.15,.48-.28,.73-.42-.24,.14-.49,.28-.73,.42Zm1.16-.66c.28-.15,.55-.28,.83-.42-.28,.14-.56,.27-.83,.42Zm1.19-.59c.4-.19,.81-.36,1.21-.53-.41,.16-.81,.34-1.21,.53Zm1.29-.56c.38-.15,.77-.29,1.15-.43-.39,.13-.77,.27-1.15,.43Zm1.55-.55c.28-.09,.57-.18,.85-.26-.29,.08-.57,.17-.85,.26Zm1.33-.39c.27-.07,.53-.14,.8-.2-.27,.06-.53,.13-.8,.2Zm1.3-.31c.26-.05,.53-.11,.79-.15-.27,.05-.53,.1-.79,.15Zm1.3-.24c.27-.04,.55-.08,.82-.11-.27,.03-.55,.07-.82,.11Zm1.3-.17c.31-.03,.62-.05,.93-.07-.31,.02-.62,.04-.93,.07Zm-14.14,6.23c-.34,.31-.68,.62-1.01,.95,.33-.33,.67-.65,1.01-.95Zm1.05-.89c-.24,.19-.47,.39-.71,.59,.23-.2,.47-.4,.71-.59Z"/><path d="M137.56,88.74l1,.65v-6.22l-.2-.19c-2.64-2.51-4.1-5.88-4.1-9.5,0-7.24,5.89-13.13,13.13-13.13s13.13,5.89,13.13,13.13c0,3.62-1.53,7.12-4.2,9.6l-.21,.19v6.18l1-.64c5.29-3.37,8.45-9.1,8.45-15.33,0-10.03-8.16-18.18-18.18-18.18s-18.18,8.16-18.18,18.18c0,6.18,3.12,11.89,8.35,15.26Z"/></g><g><path class="cls-1" d="M144.81,99.37v18.08h5.07v-18.08h9.64c3.19,.39,5.46,1.96,6.69,4.56l2.67-5.3c-2.2-2.38-5.39-3.69-9.32-3.69h-9.68v-17.61h-5.07v17.61h-17.61v4.43h17.61Z"/><path d="M167.29,112.91v18.53h-31.37v-11.67c0-5.75-1.44-10.81-4.14-14.67v-.02l-.18-.26-.78-1.07-.03,.09c-.54-.65-1.1-1.25-1.71-1.8v-.03l-.36-.32-.65-.56v.03c-2.92-2.29-6.46-3.71-10.57-4.19l-.22-.03h-36.65l-.22,.03c-3.44,.4-6.5,1.48-9.13,3.17v-.02l-.05,.02c-2.14-3.22-5.53-5.26-9.66-5.74l-.22-.03h-21.33l-.22,.03c-7.54,.89-12.22,6.62-12.22,14.95v26.76H62.03v23.28h73.9v-23.6h36.13v-1.53h.23v-25.68c0-1.63-.19-3.14-.54-4.52l-4.45,8.84Zm-105.27,6.87v11.34h-29.4v-21.76c0-5.83,2.76-9.38,7.77-9.98h20.67c2.92,.35,5.12,1.77,6.42,4.08-3.56,4.03-5.45,9.65-5.45,16.33Zm68.9,11.34v23.28h-63.9v-34.62c0-4.59,.99-8.43,2.94-11.42,.82-1.26,1.83-2.36,3-3.28,2.17-1.71,4.87-2.77,8.02-3.14h35.99c4.02,.48,7.26,2.05,9.64,4.65,1.46,1.61,2.57,3.59,3.29,5.9h0c.68,2.18,1.02,4.63,1.02,7.29v11.34Z"/></g><g><path d="M85.92,126.57c1.2,0,2.18,.98,2.18,2.18s-.98,2.18-2.18,2.18-2.18-.98-2.18-2.18,.98-2.18,2.18-2.18m0-5c-3.97,0-7.18,3.22-7.18,7.18s3.22,7.18,7.18,7.18,7.18-3.22,7.18-7.18-3.22-7.18-7.18-7.18h0Z"/><path class="cls-2" d="M102.9,135.93v-4.4c0-5.27,4.11-9.54,9.19-9.54s9.19,4.27,9.19,9.54v4.4"/><line class="cls-2" x1="86.31" y1="124.4" x2="86.31" y2="100.88"/><line class="cls-2" x1="112.08" y1="124.4" x2="112.08" y2="100.88"/></g><g><path d="M42.05,109.04c-2.51,0-4.54,2.03-4.54,4.54s2.03,4.54,4.54,4.54,4.54-2.03,4.54-4.54-2.03-4.54-4.54-4.54h0Z"/><path class="cls-2" d="M52.79,118.13v-2.78c0-3.34,2.6-6.04,5.81-6.04s5.81,2.7,5.81,6.04v2.78"/><line class="cls-2" x1="42.29" y1="110.84" x2="42.29" y2="95.96"/><line class="cls-2" x1="58.6" y1="110.84" x2="58.6" y2="95.96"/></g></svg>