<?xml version="1.0" encoding="UTF-8"?><svg id="Layer_1" xmlns="http://www.w3.org/2000/svg" xmlns:xlink="http://www.w3.org/1999/xlink" viewBox="0 0 200 200"><defs><style>.cls-1{fill:url(#linear-gradient);}.cls-2{fill:none;stroke:#000;stroke-miterlimit:10;stroke-width:4.5px;}</style><linearGradient id="linear-gradient" x1="94.41" y1="114.91" x2="113.15" y2="82.44" gradientTransform="matrix(1, 0, 0, 1, 0, 0)" gradientUnits="userSpaceOnUse"><stop offset=".2" stop-color="#fa24a1"/><stop offset=".8" stop-color="#c032ec"/></linearGradient></defs><path class="cls-1" d="M115.43,95.95h-9.36v-17.61h-5.42v17.61h-17.61v4.48l17.61,.02v18.06h5.12v-18.08h9.58c3.35,.39,5.69,2.1,6.88,4.93l2.52-5.01,.23-.46c-2.21-2.53-5.47-3.95-9.55-3.95Z"/><path class="cls-2" d="M103.19,73.27v-4.8l1.5-.76c6.7-3.38,11.15-10.43,11.13-17.97-.02-6.66-3.42-14.48-9.93-17.12-.13-.05-.29-.1-.4-.03-.11,.07-.15,14.26-.15,14.26l-9.78,9.81-11.81-9.81s-.04-14.19-.15-14.26c-.12-.08-.27-.03-.4,.03-6.51,2.64-9.91,10.46-9.93,17.12-.02,7.54,4.43,14.58,11.13,17.97l1.5,.76v23.08"/><path class="cls-2" d="M85.86,113.47l.09,46.39c0,3.4,2.29,5.92,5.4,6.99,2.44,.84,5.21,.86,7.53-.27,5.2-2.55,4.25-8.63,4.25-13.42v-29.14"/><path class="cls-2" d="M78.27,98.21h-4.8l-.76-1.5c-3.38-6.7-10.43-11.15-17.97-11.13-6.66,.02-14.48,3.42-17.12,9.93-.05,.13-.1,.29-.03,.4,.07,.11,14.26,.15,14.26,.15l9.81,9.78-9.81,11.81s-14.19,.04-14.26,.15c-.08,.12-.03,.27,.03,.4,2.64,6.51,10.46,9.91,17.12,9.93,7.54,.02,14.58-4.43,17.97-11.13l.76-1.5h14.2"/><path class="cls-2" d="M112.34,115.54l51.52-.09c3.4,0,5.92-2.29,6.99-5.4,.84-2.44,.86-5.21-.27-7.53-2.55-5.2-8.63-4.25-13.42-4.25-6.5,0-9.99,0-16.49,0h-9.65"/></svg>